<?xml version="1.0" encoding="utf-8"?>
<!-- Generator: Adobe Illustrator 26.0.1, SVG Export Plug-In . SVG Version: 6.00 Build 0)  -->
<svg version="1.1" id="Ebene_1" xmlns="http://www.w3.org/2000/svg" xmlns:xlink="http://www.w3.org/1999/xlink" x="0px" y="0px"
	 viewBox="0 0 8 16" style="enable-background:new 0 0 8 16;" xml:space="preserve">
<style type="text/css">
	.st0{clip-path:url(#SVGID_00000176004169083106517300000006818510675244151218_);}
	.st1{clip-path:url(#SVGID_00000129917818179952871380000005571519340898503565_);}
</style>
<g>
	<defs>
		<rect id="SVGID_1_" width="8" height="16"/>
	</defs>
	<clipPath id="SVGID_00000052823296544674032420000002855699806871643780_">
		<use xlink:href="#SVGID_1_"  style="overflow:visible;"/>
	</clipPath>
	<g id="b" style="clip-path:url(#SVGID_00000052823296544674032420000002855699806871643780_);">
		<g transform="translate(1.4 3.662)">
			<g>
				<defs>
					<rect id="SVGID_00000182497675978994828850000002658301425318861190_" x="0" y="0" width="5.2" height="9.8"/>
				</defs>
				<clipPath id="SVGID_00000076584844478809124360000012566664304819116479_">
					<use xlink:href="#SVGID_00000182497675978994828850000002658301425318861190_"  style="overflow:visible;"/>
				</clipPath>
				<g style="clip-path:url(#SVGID_00000076584844478809124360000012566664304819116479_);">
					<path d="M0.3,9.8C0.1,9.8,0,9.7,0,9.5c0-0.1,0-0.1,0.1-0.2l4.4-4.4L0.1,0.5C0,0.4,0,0.2,0.1,0.1C0.1,0,0.2,0,0.3,0
						c0.1,0,0.1,0,0.2,0.1l4.6,4.6c0.1,0.1,0.1,0.3,0,0.4c0,0,0,0,0,0L0.5,9.7C0.4,9.8,0.3,9.8,0.3,9.8"/>
				</g>
			</g>
		</g>
	</g>
</g>
</svg>
