<svg xmlns="http://www.w3.org/2000/svg" width="10" height="5" viewBox="0 0 10 5">
  <g id="down-arrow" transform="translate(0.149 0.154)">
    <g id="Gruppe_7060" data-name="Gruppe 7060" transform="translate(-0.149 -0.154)">
      <path id="Pfad_383" data-name="Pfad 383" d="M9.582,117.442a.438.438,0,0,0-.571,0L4.85,121.16l-4.16-3.718a.438.438,0,0,0-.571,0,.335.335,0,0,0,0,.511l4.446,3.973a.438.438,0,0,0,.571,0l4.446-3.973a.335.335,0,0,0,0-.511Z" transform="translate(0.149 -117.182)" fill="#fff"/>
      <path id="Pfad_383_-_Kontur" data-name="Pfad 383 - Kontur" d="M.4,117.186a.575.575,0,0,1,.388.144l4.061,3.639,4.065-3.643a.587.587,0,0,1,.77,0,.475.475,0,0,1,0,.72l-4.447,3.992a.587.587,0,0,1-.77,0L.016,118.047a.475.475,0,0,1,0-.72.575.575,0,0,1,.384-.141Zm4.45,4.172-4.262-3.82a.28.28,0,0,0-.187-.069.28.28,0,0,0-.187.069.2.2,0,0,0,0,.3l4.45,3.988a.289.289,0,0,0,.375,0l4.45-3.988a.2.2,0,0,0,0-.3.289.289,0,0,0-.375,0Z" transform="translate(0.149 -117.182)" fill="#fff"/>
    </g>
  </g>
</svg>
