<svg xmlns="http://www.w3.org/2000/svg" xmlns:xlink="http://www.w3.org/1999/xlink" width="180" height="95" viewBox="0 0 180 95"><defs><clipPath id="clip-Zeichenfl&#xE4;che_2"><rect width="180" height="95"></rect></clipPath></defs><g id="Zeichenfl&#xE4;che_2" data-name="Zeichenfl&#xE4;che &#x2013; 2" clip-path="url(#clip-Zeichenfl&#xE4;che_2)"><g id="Gruppe_7021" data-name="Gruppe 7021" transform="translate(-86.234 -40.057)"><g id="Gruppe_30" data-name="Gruppe 30" transform="translate(96.256 48.444)"><g id="Gruppe_4" data-name="Gruppe 4" transform="translate(0)"><path id="Pfad_1" data-name="Pfad 1" d="M115.363,131.754h-6.209V118.89c0-2.2-.881-3.436-3.057-3.436s-3.245,1.233-3.245,3.436v12.864H96.647V117.481c0-5.2,4.076-7.665,8.524-7.665a7.849,7.849,0,0,1,6.9,3.611,8.938,8.938,0,0,1,7.275-3.611c4.449,0,8.524,2.467,8.524,7.665v14.273h-6.208V118.89c0-2.2-1.066-3.436-3.245-3.436s-3.055,1.233-3.055,3.436Zm135.384,0v-12.07c0-2.554-2.038-4.229-5.282-4.229-2.826,0-5,2.466-5,5.6a5.07,5.07,0,0,0,4.985,5.154c.067,0,.135,0,.2,0a9.367,9.367,0,0,0,3.382-.66V131.4a16.858,16.858,0,0,1-3.751.527c-6.948,0-10.747-5.066-10.747-10.662,0-6.871,4.818-11.452,11.024-11.452,6.766,0,11.121,4.053,11.121,9.6v12.331Zm-102.963,0v-12.07c0-2.554-2.038-4.229-5.283-4.229-2.826,0-5,2.466-5,5.6a5.071,5.071,0,0,0,4.986,5.154c.068,0,.136,0,.2,0a9.387,9.387,0,0,0,3.381-.66V131.4a16.877,16.877,0,0,1-3.753.527c-6.948,0-10.747-5.066-10.747-10.662,0-6.871,4.818-11.452,11.026-11.452,6.763,0,11.119,4.053,11.119,9.6v12.331Zm29.184-21.41v12.864c0,2.2.879,3.436,3.057,3.436s3.245-1.233,3.245-3.436V110.344h6.206v14.272c0,5.2-4.076,7.667-8.524,7.667a8.937,8.937,0,0,1-7.275-3.614,7.851,7.851,0,0,1-6.9,3.614c-4.449,0-8.524-2.469-8.524-7.667V110.344h6.207v12.864c0,2.2,1.066,3.436,3.245,3.436s3.057-1.233,3.057-3.436V110.344Zm17.089,0h5.929v21.41h-5.93Zm38.121,0v5.462h-4.309v7.929c0,1.587.834,2.381,2.038,2.381h2.271v5.638h-3.1c-5.467,0-7.135-3.084-7.135-7.841v-19.3h5.931v5.726Zm-28.951,16.124h7.645c1.112,0,1.669-.527,1.669-1.188,0-2.688-9.081-3.305-9.081-8.636,0-4.626,3.427-6.3,7.318-6.3h7.135v5.286h-6.856c-.742,0-1.481.088-1.481.969,0,1.936,9.543,3,9.543,8.635,0,4.274-3.336,6.52-7.6,6.52h-8.291Z" transform="translate(-96.647 -80.628)" fill="#040506"></path><path id="Pfad_2" data-name="Pfad 2" d="M330.48,94.567a3.517,3.517,0,1,1-3.517-3.517,3.517,3.517,0,0,1,3.517,3.517v0" transform="translate(-226.588 -72.855)" fill="#cb161a"></path><path id="Pfad_3" data-name="Pfad 3" d="M330.48,73.261a3.517,3.517,0,1,1-3.517-3.517,3.517,3.517,0,0,1,3.517,3.517h0" transform="translate(-226.588 -60.648)" fill="#cb161a"></path><path id="Pfad_4" data-name="Pfad 4" d="M330.48,51.961a3.517,3.517,0,1,1-3.517-3.517,3.517,3.517,0,0,1,3.517,3.517v0" transform="translate(-226.588 -48.444)" fill="#cb161a"></path><path id="Pfad_5" data-name="Pfad 5" d="M330.48,182.134a3.517,3.517,0,1,1-3.517-3.517,3.517,3.517,0,0,1,3.517,3.517h0" transform="translate(-226.588 -123.025)" fill="#cb161a"></path></g></g><g id="Gruppe_7018" data-name="Gruppe 7018" transform="translate(95.965 112.401)"><path id="Pfad_313" data-name="Pfad 313" d="M100.092,205.671l-4.127-5.893h1.673l3.11,4.549,3.11-4.549h1.672l-4.1,5.893V210.2h-1.344Z" transform="translate(-95.965 -199.106)" fill="#676767"></path><path id="Pfad_314" data-name="Pfad 314" d="M118.141,213.7a3.393,3.393,0,0,1-1.321-1.376,4.57,4.57,0,0,1,0-4.033,3.341,3.341,0,0,1,1.321-1.367,4.18,4.18,0,0,1,3.908,0,3.343,3.343,0,0,1,1.32,1.367,4.566,4.566,0,0,1,0,4.033,3.4,3.4,0,0,1-1.32,1.376,4.122,4.122,0,0,1-3.908,0Zm3.751-1.454a2.767,2.767,0,0,0,.7-1.946,2.712,2.712,0,0,0-.7-1.93,2.548,2.548,0,0,0-3.6,0,2.71,2.71,0,0,0-.7,1.93,2.76,2.76,0,0,0,.7,1.954,2.349,2.349,0,0,0,1.805.75A2.32,2.32,0,0,0,121.892,212.246Z" transform="translate(-107.645 -202.922)" fill="#676767"></path><path id="Pfad_315" data-name="Pfad 315" d="M143.982,206.806v7.424H142.81v-1.11a2.472,2.472,0,0,1-.993.946,2.993,2.993,0,0,1-1.4.32,2.681,2.681,0,0,1-2.095-.867,3.455,3.455,0,0,1-.782-2.4v-4.314h1.25v4.111a2.5,2.5,0,0,0,.508,1.712,1.8,1.8,0,0,0,1.414.571,1.9,1.9,0,0,0,1.477-.594,2.351,2.351,0,0,0,.539-1.641v-4.157Z" transform="translate(-119.786 -203.132)" fill="#676767"></path><path id="Pfad_316" data-name="Pfad 316" d="M161.6,206.705l-.172,1.235a2.332,2.332,0,0,0-.735-.125,1.687,1.687,0,0,0-1.36.57,2.565,2.565,0,0,0-.484,1.7v4H157.6v-7.424h1.172v1.188a2.064,2.064,0,0,1,1.969-1.3A2.219,2.219,0,0,1,161.6,206.705Z" transform="translate(-131.277 -202.985)" fill="#676767"></path><path id="Pfad_317" data-name="Pfad 317" d="M183.9,202.757a3.455,3.455,0,0,1,.782,2.4v4.314h-1.25v-4.111a2.507,2.507,0,0,0-.508-1.711,1.8,1.8,0,0,0-1.414-.571,1.9,1.9,0,0,0-1.477.594,2.351,2.351,0,0,0-.539,1.641v4.158h-1.25V198.5h1.25v4.533a2.32,2.32,0,0,1,.977-.86,3.154,3.154,0,0,1,1.352-.281A2.662,2.662,0,0,1,183.9,202.757Z" transform="translate(-143.103 -198.372)" fill="#676767"></path><path id="Pfad_318" data-name="Pfad 318" d="M203.935,210.753h-5.689a2.445,2.445,0,0,0,.82,1.688,2.729,2.729,0,0,0,1.805.578,4.412,4.412,0,0,0,1.3-.2,4.083,4.083,0,0,0,1.157-.555l.344,1.079a4.209,4.209,0,0,1-1.266.617,5.231,5.231,0,0,1-1.547.227,4.25,4.25,0,0,1-2.024-.469,3.3,3.3,0,0,1-1.368-1.344,4.231,4.231,0,0,1-.484-2.079,4.415,4.415,0,0,1,.438-2,3.311,3.311,0,0,1,1.235-1.368,3.381,3.381,0,0,1,1.813-.492,3.544,3.544,0,0,1,1.829.469,3.2,3.2,0,0,1,1.235,1.313,4.15,4.15,0,0,1,.438,1.938Q203.966,210.41,203.935,210.753ZM199,208.127a2.557,2.557,0,0,0-.742,1.516H202.7a2.242,2.242,0,0,0-.672-1.5,2.136,2.136,0,0,0-1.532-.563A2.1,2.1,0,0,0,199,208.127Z" transform="translate(-153.84 -202.922)" fill="#676767"></path><path id="Pfad_319" data-name="Pfad 319" d="M217.785,213.684a3.322,3.322,0,0,1-1.227-1.367,4.826,4.826,0,0,1,0-4.017,3.4,3.4,0,0,1,4.509-1.524,3.152,3.152,0,0,1,1.165,1.008V206.6H223.4v7.424h-1.172v-1.188a3.146,3.146,0,0,1-1.165,1.008,3.492,3.492,0,0,1-3.282-.156Zm3.728-1.422a2.86,2.86,0,0,0,.641-1.962,2.809,2.809,0,0,0-.649-1.953,2.177,2.177,0,0,0-1.7-.719,2.271,2.271,0,0,0-1.766.742,3.132,3.132,0,0,0,0,3.876,2.269,2.269,0,0,0,1.766.743A2.16,2.16,0,0,0,221.513,212.262Z" transform="translate(-164.806 -202.922)" fill="#676767"></path><path id="Pfad_320" data-name="Pfad 320" d="M239.769,198.5v9.035a.949.949,0,0,0,.187.656.728.728,0,0,0,.563.2,1.624,1.624,0,0,0,.516-.078l.141,1.078a2.338,2.338,0,0,1-.969.156,1.691,1.691,0,0,1-1.282-.43,1.941,1.941,0,0,1-.407-1.368V198.5Z" transform="translate(-177.639 -198.372)" fill="#676767"></path><path id="Pfad_321" data-name="Pfad 321" d="M250.267,211.252a3.3,3.3,0,0,1-1.235.219,2.117,2.117,0,0,1-1.6-.578,2.277,2.277,0,0,1-.555-1.641v-4.111h-1.11v-1.188h1.11v-1.876l1.25-.25v2.126h2.048v1.188h-2.048v3.97a1.242,1.242,0,0,0,.274.891,1.051,1.051,0,0,0,.789.281,2.454,2.454,0,0,0,.891-.156Z" transform="translate(-181.791 -200.28)" fill="#676767"></path><path id="Pfad_322" data-name="Pfad 322" d="M265.368,202.757a3.457,3.457,0,0,1,.782,2.4v4.314H264.9v-4.111a2.507,2.507,0,0,0-.508-1.711,1.8,1.8,0,0,0-1.414-.571,1.9,1.9,0,0,0-1.477.594,2.351,2.351,0,0,0-.539,1.641v4.158h-1.25V198.5h1.25v4.533a2.322,2.322,0,0,1,.977-.86,3.155,3.155,0,0,1,1.352-.281A2.663,2.663,0,0,1,265.368,202.757Z" transform="translate(-189.78 -198.372)" fill="#676767"></path><path id="Pfad_323" data-name="Pfad 323" d="M279.109,221.829a.918.918,0,1,1,1.555-.649.9.9,0,0,1-.25.649.954.954,0,0,1-1.305,0Z" transform="translate(-200.747 -210.849)" fill="#676767"></path><path id="Pfad_324" data-name="Pfad 324" d="M296.811,205.671l-4.126-5.893h1.672l3.11,4.549,3.111-4.549h1.672l-4.1,5.893V210.2h-1.344Z" transform="translate(-208.673 -199.106)" fill="#676767"></path><path id="Pfad_325" data-name="Pfad 325" d="M314.86,213.7a3.392,3.392,0,0,1-1.32-1.376,4.569,4.569,0,0,1,0-4.033,3.34,3.34,0,0,1,1.32-1.367,4.18,4.18,0,0,1,3.908,0,3.341,3.341,0,0,1,1.321,1.367,4.57,4.57,0,0,1,0,4.033,3.393,3.393,0,0,1-1.321,1.376,4.122,4.122,0,0,1-3.908,0Zm3.752-1.454a2.767,2.767,0,0,0,.7-1.946,2.712,2.712,0,0,0-.7-1.93,2.548,2.548,0,0,0-3.6,0,2.708,2.708,0,0,0-.7,1.93,2.758,2.758,0,0,0,.7,1.954,2.349,2.349,0,0,0,1.805.75A2.32,2.32,0,0,0,318.612,212.246Z" transform="translate(-220.353 -202.922)" fill="#676767"></path><path id="Pfad_326" data-name="Pfad 326" d="M340.7,206.806v7.424h-1.172v-1.11a2.471,2.471,0,0,1-.992.946,2.994,2.994,0,0,1-1.4.32,2.68,2.68,0,0,1-2.094-.867,3.455,3.455,0,0,1-.782-2.4v-4.314h1.25v4.111a2.505,2.505,0,0,0,.508,1.712,1.8,1.8,0,0,0,1.414.571,1.9,1.9,0,0,0,1.477-.594,2.353,2.353,0,0,0,.539-1.641v-4.157Z" transform="translate(-232.494 -203.132)" fill="#676767"></path><path id="Pfad_327" data-name="Pfad 327" d="M358.32,206.705l-.172,1.235a2.327,2.327,0,0,0-.735-.125,1.687,1.687,0,0,0-1.36.57,2.565,2.565,0,0,0-.485,1.7v4h-1.25v-7.424h1.172v1.188a2.064,2.064,0,0,1,1.969-1.3A2.22,2.22,0,0,1,358.32,206.705Z" transform="translate(-243.985 -202.985)" fill="#676767"></path><path id="Pfad_328" data-name="Pfad 328" d="M375.161,201.878h2.032v1.188h-2.032V209.3h-1.25v-6.236H372.8v-1.188h1.11V200.6a2.5,2.5,0,0,1,.579-1.766,2.145,2.145,0,0,1,1.657-.625,3.426,3.426,0,0,1,1.172.2l-.2,1.11a2.174,2.174,0,0,0-.844-.157,1.053,1.053,0,0,0-.836.313,1.529,1.529,0,0,0-.274,1.016Z" transform="translate(-254.574 -198.204)" fill="#676767"></path><path id="Pfad_329" data-name="Pfad 329" d="M392.6,206.806v7.424h-1.172v-1.11a2.473,2.473,0,0,1-.993.946,3,3,0,0,1-1.4.32,2.68,2.68,0,0,1-2.095-.867,3.455,3.455,0,0,1-.782-2.4v-4.314h1.251v4.111a2.507,2.507,0,0,0,.508,1.712,1.8,1.8,0,0,0,1.415.571,1.9,1.9,0,0,0,1.477-.594,2.351,2.351,0,0,0,.539-1.641v-4.157Z" transform="translate(-262.228 -203.132)" fill="#676767"></path><path id="Pfad_330" data-name="Pfad 330" d="M408.558,211.252a3.3,3.3,0,0,1-1.235.219,2.117,2.117,0,0,1-1.6-.578,2.276,2.276,0,0,1-.555-1.641v-4.111h-1.11v-1.188h1.11v-1.876l1.25-.25v2.126h2.048v1.188h-2.048v3.97a1.242,1.242,0,0,0,.274.891,1.05,1.05,0,0,0,.789.281,2.454,2.454,0,0,0,.891-.156Z" transform="translate(-272.482 -200.28)" fill="#676767"></path><path id="Pfad_331" data-name="Pfad 331" d="M424.074,206.806v7.424H422.9v-1.11a2.473,2.473,0,0,1-.993.946,3,3,0,0,1-1.4.32,2.68,2.68,0,0,1-2.094-.867,3.453,3.453,0,0,1-.782-2.4v-4.314h1.251v4.111a2.507,2.507,0,0,0,.508,1.712,1.8,1.8,0,0,0,1.415.571,1.9,1.9,0,0,0,1.477-.594,2.351,2.351,0,0,0,.539-1.641v-4.157Z" transform="translate(-280.261 -203.132)" fill="#676767"></path><path id="Pfad_332" data-name="Pfad 332" d="M441.693,206.705l-.172,1.235a2.33,2.33,0,0,0-.735-.125,1.686,1.686,0,0,0-1.36.57,2.563,2.563,0,0,0-.485,1.7v4h-1.25v-7.424h1.172v1.188a2.065,2.065,0,0,1,1.97-1.3A2.222,2.222,0,0,1,441.693,206.705Z" transform="translate(-291.752 -202.985)" fill="#676767"></path><path id="Pfad_333" data-name="Pfad 333" d="M455.042,210.753h-5.689a2.445,2.445,0,0,0,.82,1.688,2.729,2.729,0,0,0,1.805.578,4.413,4.413,0,0,0,1.3-.2,4.084,4.084,0,0,0,1.157-.555l.344,1.079a4.21,4.21,0,0,1-1.266.617,5.231,5.231,0,0,1-1.547.227,4.25,4.25,0,0,1-2.024-.469,3.3,3.3,0,0,1-1.368-1.344,4.231,4.231,0,0,1-.484-2.079,4.409,4.409,0,0,1,.438-2,3.311,3.311,0,0,1,1.235-1.368,3.381,3.381,0,0,1,1.813-.492,3.544,3.544,0,0,1,1.829.469,3.2,3.2,0,0,1,1.235,1.313,4.15,4.15,0,0,1,.438,1.938Q455.073,210.41,455.042,210.753Zm-4.932-2.626a2.557,2.557,0,0,0-.742,1.516h4.439a2.24,2.24,0,0,0-.673-1.5,2.134,2.134,0,0,0-1.531-.563A2.1,2.1,0,0,0,450.11,208.127Z" transform="translate(-297.708 -202.922)" fill="#676767"></path><path id="Pfad_334" data-name="Pfad 334" d="M467.888,221.829a.918.918,0,1,1,1.555-.649.9.9,0,0,1-.25.649.954.954,0,0,1-1.305,0Z" transform="translate(-308.905 -210.849)" fill="#676767"></path></g></g></g></svg>